<?xml version="1.0" encoding="UTF-8" standalone="no"?>
<svg
   xmlns:dc="http://purl.org/dc/elements/1.1/"
   xmlns:cc="http://creativecommons.org/ns#"
   xmlns:rdf="http://www.w3.org/1999/02/22-rdf-syntax-ns#"
   xmlns:svg="http://www.w3.org/2000/svg"
   xmlns="http://www.w3.org/2000/svg"
   xmlns:xlink="http://www.w3.org/1999/xlink"
   xmlns:sodipodi="http://sodipodi.sourceforge.net/DTD/sodipodi-0.dtd"
   xmlns:inkscape="http://www.inkscape.org/namespaces/inkscape"
   width="128"
   height="128"
   id="svg2"
   sodipodi:version="0.32"
   inkscape:version="0.92.2 2405546, 2018-03-11"
   sodipodi:docname="Crystal_Clear_action_run_v2.svg"
   inkscape:output_extension="org.inkscape.output.svg.inkscape"
   version="1.0">
  <sodipodi:namedview
     id="base"
     pagecolor="#ffffff"
     bordercolor="#666666"
     borderopacity="1.0"
     gridtolerance="10000"
     guidetolerance="10"
     objecttolerance="10"
     inkscape:pageopacity="0"
     inkscape:pageshadow="2"
     inkscape:zoom="5.6568543"
     inkscape:cx="56.132279"
     inkscape:cy="48.779341"
     inkscape:document-units="px"
     inkscape:current-layer="layer1"
     showgrid="false"
     inkscape:window-width="1299"
     inkscape:window-height="713"
     inkscape:window-x="67"
     inkscape:window-y="27"
     showguides="true"
     inkscape:guide-bbox="true"
     inkscape:window-maximized="1"
     inkscape:pagecheckerboard="true" />
  <defs
     id="defs4">
    <linearGradient
       inkscape:collect="always"
       id="linearGradient3290">
      <stop
         style="stop-color:#ffffff;stop-opacity:1"
         offset="0"
         id="stop3292" />
      <stop
         style="stop-color:#ffffff;stop-opacity:0"
         offset="1"
         id="stop3294" />
    </linearGradient>
    <linearGradient
       id="linearGradient3812">
      <stop
         style="stop-color:#2e2e2e;stop-opacity:1"
         offset="0"
         id="stop3814" />
      <stop
         style="stop-color:#000000;stop-opacity:0"
         offset="1"
         id="stop3816" />
    </linearGradient>
    <linearGradient
       inkscape:collect="always"
       id="linearGradient3644">
      <stop
         style="stop-color:#000000;stop-opacity:1"
         offset="0"
         id="stop3646" />
      <stop
         style="stop-color:#000000;stop-opacity:0"
         offset="1"
         id="stop3648" />
    </linearGradient>
    <linearGradient
       id="linearGradient3299">
      <stop
         style="stop-color:#6a7390;stop-opacity:1"
         offset="0"
         id="stop3301" />
      <stop
         style="stop-color:#eaebef;stop-opacity:1"
         offset="1"
         id="stop3303" />
    </linearGradient>
    <linearGradient
       id="linearGradient3283">
      <stop
         style="stop-color:#ffffff;stop-opacity:0.78688526"
         offset="0"
         id="stop3285" />
      <stop
         style="stop-color:#ffffff;stop-opacity:0"
         offset="1"
         id="stop3287" />
    </linearGradient>
    <linearGradient
       inkscape:collect="always"
       xlink:href="#linearGradient3299"
       id="linearGradient3339"
       x1="236.14679"
       y1="509.08899"
       x2="256.25"
       y2="553.19183"
       gradientUnits="userSpaceOnUse" />
    <linearGradient
       inkscape:collect="always"
       xlink:href="#linearGradient3299"
       id="linearGradient3347"
       x1="251.46344"
       y1="510.37042"
       x2="261.67477"
       y2="558.29987"
       gradientUnits="userSpaceOnUse" />
    <filter
       inkscape:collect="always"
       id="filter3525">
      <feGaussianBlur
         inkscape:collect="always"
         stdDeviation="3.1093332"
         id="feGaussianBlur3527" />
    </filter>
    <linearGradient
       inkscape:collect="always"
       xlink:href="#linearGradient3299"
       id="linearGradient3547"
       gradientUnits="userSpaceOnUse"
       x1="170.4201"
       y1="513.32434"
       x2="170.4201"
       y2="577.06873" />
    <linearGradient
       inkscape:collect="always"
       xlink:href="#linearGradient3283"
       id="linearGradient3555"
       gradientUnits="userSpaceOnUse"
       x1="263.30957"
       y1="517.92938"
       x2="254.34146"
       y2="540.2486" />
    <linearGradient
       inkscape:collect="always"
       xlink:href="#linearGradient3283"
       id="linearGradient3559"
       gradientUnits="userSpaceOnUse"
       x1="170.4201"
       y1="501.71945"
       x2="170.4201"
       y2="518.36169" />
    <linearGradient
       inkscape:collect="always"
       xlink:href="#linearGradient3644"
       id="linearGradient3650"
       x1="128.4258"
       y1="498.07144"
       x2="128.4258"
       y2="527.55396"
       gradientUnits="userSpaceOnUse" />
    <linearGradient
       inkscape:collect="always"
       xlink:href="#linearGradient3812"
       id="linearGradient3818"
       x1="377.50214"
       y1="507.22119"
       x2="377.50214"
       y2="534.16211"
       gradientUnits="userSpaceOnUse" />
    <linearGradient
       inkscape:collect="always"
       xlink:href="#linearGradient3812"
       id="linearGradient3833"
       gradientUnits="userSpaceOnUse"
       x1="377.50214"
       y1="507.22119"
       x2="377.50214"
       y2="534.16211" />
    <linearGradient
       inkscape:collect="always"
       xlink:href="#linearGradient3290"
       id="linearGradient3296"
       x1="454.52679"
       y1="481.29074"
       x2="330.00446"
       y2="481.29074"
       gradientUnits="userSpaceOnUse" />
    <linearGradient
       inkscape:collect="always"
       xlink:href="#linearGradient3299"
       id="linearGradient3310"
       gradientUnits="userSpaceOnUse"
       gradientTransform="translate(3.6221094e-4,0)"
       x1="327.14285"
       y1="571.29077"
       x2="327.14285"
       y2="481.29074" />
    <linearGradient
       inkscape:collect="always"
       xlink:href="#linearGradient3299"
       id="linearGradient3374"
       gradientUnits="userSpaceOnUse"
       gradientTransform="translate(3.6221094e-4,0)"
       x1="327.14285"
       y1="571.29077"
       x2="327.14285"
       y2="481.29074" />
    <linearGradient
       inkscape:collect="always"
       xlink:href="#linearGradient3299"
       id="linearGradient3376"
       gradientUnits="userSpaceOnUse"
       x1="236.14679"
       y1="509.08899"
       x2="256.25"
       y2="553.19183" />
    <linearGradient
       inkscape:collect="always"
       xlink:href="#linearGradient3299"
       id="linearGradient3378"
       gradientUnits="userSpaceOnUse"
       x1="251.46344"
       y1="510.37042"
       x2="261.67477"
       y2="558.29987" />
    <linearGradient
       inkscape:collect="always"
       xlink:href="#linearGradient3299"
       id="linearGradient3380"
       gradientUnits="userSpaceOnUse"
       x1="170.4201"
       y1="513.32434"
       x2="170.4201"
       y2="577.06873" />
    <linearGradient
       inkscape:collect="always"
       xlink:href="#linearGradient3283"
       id="linearGradient3382"
       gradientUnits="userSpaceOnUse"
       x1="170.4201"
       y1="501.71945"
       x2="170.4201"
       y2="518.36169" />
    <linearGradient
       inkscape:collect="always"
       xlink:href="#linearGradient3812"
       id="linearGradient3384"
       gradientUnits="userSpaceOnUse"
       x1="377.50214"
       y1="507.22119"
       x2="377.50214"
       y2="534.16211" />
    <linearGradient
       inkscape:collect="always"
       xlink:href="#linearGradient3290"
       id="linearGradient3386"
       gradientUnits="userSpaceOnUse"
       x1="454.52679"
       y1="481.29074"
       x2="330.00446"
       y2="481.29074" />
    <linearGradient
       inkscape:collect="always"
       xlink:href="#linearGradient3299"
       id="linearGradient3056"
       gradientUnits="userSpaceOnUse"
       gradientTransform="matrix(0.87593886,0,0,0.87593886,47.17442,72.408695)"
       x1="327.14285"
       y1="571.29077"
       x2="327.14285"
       y2="481.29074" />
    <linearGradient
       inkscape:collect="always"
       xlink:href="#linearGradient3299"
       id="linearGradient3058"
       gradientUnits="userSpaceOnUse"
       x1="236.14679"
       y1="509.08899"
       x2="256.25"
       y2="553.19183"
       gradientTransform="matrix(1.1079757,0,0,1.1079757,89.14598,-55.14821)" />
    <linearGradient
       inkscape:collect="always"
       xlink:href="#linearGradient3299"
       id="linearGradient3060"
       gradientUnits="userSpaceOnUse"
       x1="251.46344"
       y1="510.37042"
       x2="261.67477"
       y2="558.29987"
       gradientTransform="matrix(0.98035541,0,0,0.98035541,121.84866,12.63245)" />
    <linearGradient
       inkscape:collect="always"
       xlink:href="#linearGradient3299"
       id="linearGradient3062"
       gradientUnits="userSpaceOnUse"
       x1="170.4201"
       y1="513.32434"
       x2="170.4201"
       y2="577.06873"
       gradientTransform="matrix(0.45827264,0,0,0.45827264,255.63237,289.91698)" />
    <linearGradient
       inkscape:collect="always"
       xlink:href="#linearGradient3283"
       id="linearGradient3064"
       gradientUnits="userSpaceOnUse"
       x1="170.4201"
       y1="501.71945"
       x2="170.4201"
       y2="518.36169"
       gradientTransform="matrix(0.45827264,0,0,0.45827264,255.63237,289.91698)" />
    <linearGradient
       inkscape:collect="always"
       xlink:href="#linearGradient3812"
       id="linearGradient3066"
       gradientUnits="userSpaceOnUse"
       x1="377.50214"
       y1="507.22119"
       x2="377.50214"
       y2="534.16211"
       gradientTransform="matrix(0.30771548,0,0,0.30771548,294.21265,369.87975)" />
    <linearGradient
       inkscape:collect="always"
       xlink:href="#linearGradient3290"
       id="linearGradient3068"
       gradientUnits="userSpaceOnUse"
       x1="454.52679"
       y1="481.29074"
       x2="330.00446"
       y2="481.29074"
       gradientTransform="matrix(0.87593886,0,0,0.87593886,47.1741,72.40869)" />
    <linearGradient
       inkscape:collect="always"
       xlink:href="#linearGradient3299"
       id="linearGradient3070"
       gradientUnits="userSpaceOnUse"
       gradientTransform="matrix(0.59454096,0,0,0.59454096,203.48095,259.89399)"
       x1="327.14285"
       y1="571.29077"
       x2="327.14285"
       y2="481.29074" />
    <linearGradient
       inkscape:collect="always"
       xlink:href="#linearGradient3299"
       id="linearGradient3072"
       gradientUnits="userSpaceOnUse"
       x1="236.14679"
       y1="509.08899"
       x2="256.25"
       y2="553.19183"
       gradientTransform="matrix(0.75203528,0,0,0.75203528,231.96902,173.31511)" />
    <linearGradient
       inkscape:collect="always"
       xlink:href="#linearGradient3299"
       id="linearGradient3074"
       gradientUnits="userSpaceOnUse"
       x1="251.46344"
       y1="510.37042"
       x2="261.67477"
       y2="558.29987"
       gradientTransform="matrix(0.66541339,0,0,0.66541339,254.16587,219.32104)" />
    <linearGradient
       inkscape:collect="always"
       xlink:href="#linearGradient3299"
       id="linearGradient3076"
       gradientUnits="userSpaceOnUse"
       x1="170.4201"
       y1="513.32434"
       x2="170.4201"
       y2="577.06873"
       gradientTransform="matrix(0.31105123,0,0,0.31105123,344.97118,407.52711)" />
    <linearGradient
       inkscape:collect="always"
       xlink:href="#linearGradient3283"
       id="linearGradient3078"
       gradientUnits="userSpaceOnUse"
       x1="170.4201"
       y1="501.71945"
       x2="170.4201"
       y2="518.36169"
       gradientTransform="matrix(0.31105123,0,0,0.31105123,344.97118,407.52711)" />
    <linearGradient
       inkscape:collect="always"
       xlink:href="#linearGradient3812"
       id="linearGradient3080"
       gradientUnits="userSpaceOnUse"
       x1="377.50214"
       y1="507.22119"
       x2="377.50214"
       y2="534.16211"
       gradientTransform="matrix(0.20886099,0,0,0.20886099,371.15743,461.8016)" />
    <linearGradient
       inkscape:collect="always"
       xlink:href="#linearGradient3290"
       id="linearGradient3082"
       gradientUnits="userSpaceOnUse"
       x1="454.52679"
       y1="481.29074"
       x2="330.00446"
       y2="481.29074"
       gradientTransform="matrix(0.59454096,0,0,0.59454096,203.48073,259.89399)" />
    <filter
       inkscape:collect="always"
       style="color-interpolation-filters:sRGB"
       id="filter1351"
       x="-0.084004943"
       width="1.1680099"
       y="-0.083995057"
       height="1.1679901">
      <feGaussianBlur
         inkscape:collect="always"
         stdDeviation="0.58081543"
         id="feGaussianBlur1353" />
    </filter>
    <filter
       inkscape:collect="always"
       style="color-interpolation-filters:sRGB"
       id="filter1612"
       x="-0.083999989"
       width="1.168"
       y="-0.084000011"
       height="1.168">
      <feGaussianBlur
         inkscape:collect="always"
         stdDeviation="0.39422857"
         id="feGaussianBlur1614" />
    </filter>
  </defs>
  <metadata
     id="metadata7">
    <rdf:RDF>
      <cc:Work
         rdf:about="">
        <dc:format>image/svg+xml</dc:format>
        <dc:type
           rdf:resource="http://purl.org/dc/dcmitype/StillImage" />
        <dc:title />
      </cc:Work>
    </rdf:RDF>
  </metadata>
  <g
     inkscape:label="Layer 1"
     inkscape:groupmode="layer"
     id="layer1"
     transform="translate(-327.5625,-481.71875)"
     style="display:inline">
    <g
       id="g1100">
      <g
         id="g1070">
        <path
           id="path3346"
           d="m 369.21912,481.71875 -2.15625,6.59375 V 488.5 c -3.34544,0.43847 -6.54858,1.28098 -9.5625,2.53125 l -0.0625,-0.125 -5.1875,-4.65625 -4.875,2.8125 1.40625,6.8125 0.0937,0.15625 c -2.62211,2.01686 -4.95059,4.37894 -6.96875,7 l -0.15625,-0.0937 -6.8125,-1.4375 -2.8125,4.875 4.625,5.1875 0.15625,0.0625 c -1.2486,3.00951 -2.12326,6.22232 -2.5625,9.5625 h -0.15625 l -6.625,2.15625 v 5.65625 l 6.625,2.15625 h 0.15625 c 0.43848,3.34664 1.31166,6.54761 2.5625,9.5625 l -0.15625,0.0937 -4.625,5.15625 2.8125,4.90625 6.8125,-1.4375 0.125,-0.0937 c 2.02078,2.62721 4.37279,4.97922 7,7 l -0.0937,0.15625 -1.40625,6.78125 4.875,2.8125 5.1875,-4.625 0.0937,-0.15625 c 3.00659,1.24468 6.19515,2.12525 9.53125,2.5625 v 0.1875 l 2.15625,6.59375 h 5.65625 l 2.15625,-6.59375 v -0.1875 c 3.3361,-0.43725 6.52466,-1.31782 9.53125,-2.5625 l 0.0937,0.15625 5.1875,4.625 4.875,-2.8125 -1.40625,-6.78125 -0.0937,-0.15625 c 2.62721,-2.02078 4.97922,-4.37279 7,-7 l 0.125,0.0937 6.8125,1.4375 2.8125,-4.90625 -4.625,-5.15625 -0.15625,-0.0937 c 1.25084,-3.01489 2.12402,-6.21586 2.5625,-9.5625 h 0.15625 l 6.625,-2.15625 v -5.65625 l -6.625,-2.15625 h -0.15625 c -0.43925,-3.34018 -1.3139,-6.55299 -2.5625,-9.5625 l 0.15625,-0.0625 4.625,-5.1875 -2.8125,-4.875 -6.8125,1.4375 -0.15625,0.0937 c -2.01816,-2.62106 -4.34664,-4.98314 -6.96875,-7 l 0.0937,-0.15625 1.40625,-6.8125 -4.875,-2.8125 -5.1875,4.65625 -0.0625,0.125 c -3.01392,-1.25027 -6.21706,-2.09278 -9.5625,-2.53125 v -0.1875 l -2.15625,-6.59375 h -5.65625 z m 2.84375,10.71875 c 18.62999,10e-6 33.75,15.12001 33.75,33.75 1e-5,18.62998 -15.12,33.75 -33.75,33.75 -18.63002,-2e-5 -33.75,-15.12 -33.75,-33.75 0,-18.63002 15.12,-33.75 33.75,-33.75 z"
           style="fill:#000000;fill-opacity:1;stroke:none;filter:url(#filter3525)"
           inkscape:connector-curvature="0"
           transform="matrix(0.59454096,0,0,0.59454096,203.48073,259.89399)" />
        <path
           style="fill:url(#linearGradient3070);fill-opacity:1;stroke:none;stroke-width:0.59454095"
           d="m 422.99662,546.29552 -1.28198,3.92025 v 0.11148 c -1.989,0.26069 -3.8934,0.76159 -5.6853,1.50493 l -0.0372,-0.0743 -3.08418,-2.76833 -2.89838,1.67215 0.83607,4.05031 0.0557,0.0929 c -1.55895,1.1991 -2.94333,2.60345 -4.14321,4.16178 l -0.0929,-0.0557 -4.05031,-0.85465 -1.67214,2.89839 2.74975,3.08418 0.0929,0.0372 c -0.74235,1.78928 -1.26237,3.69942 -1.52352,5.6853 h -0.0929 l -3.93884,1.28198 v 3.36287 l 3.93884,1.28198 h 0.0929 c 0.2607,1.98971 0.77984,3.89282 1.52352,5.68529 l -0.0929,0.0557 -2.74975,3.0656 1.67214,2.91697 4.05031,-0.85465 0.0743,-0.0557 c 1.20144,1.56198 2.5998,2.96035 4.16179,4.16179 l -0.0557,0.0929 -0.83607,4.03173 2.89838,1.67215 3.08418,-2.74975 0.0557,-0.0929 c 1.78754,0.74002 3.68327,1.26355 5.66672,1.52351 v 0.11148 l 1.28198,3.92025 h 3.36287 l 1.28198,-3.92025 v -0.11148 c 1.98345,-0.25996 3.87918,-0.78349 5.66672,-1.52351 l 0.0557,0.0929 3.08418,2.74975 2.89839,-1.67215 -0.83608,-4.03173 -0.0557,-0.0929 c 1.56198,-1.20144 2.96035,-2.59981 4.16178,-4.16179 l 0.0743,0.0557 4.05031,0.85465 1.67215,-2.91697 -2.74976,-3.0656 -0.0929,-0.0557 c 0.74367,-1.79247 1.26281,-3.69558 1.52351,-5.68529 h 0.0929 l 3.93883,-1.28198 v -3.36287 l -3.93883,-1.28198 h -0.0929 c -0.26115,-1.98588 -0.78117,-3.89602 -1.52351,-5.6853 l 0.0929,-0.0372 2.74976,-3.08418 -1.67215,-2.89839 -4.05031,0.85465 -0.0929,0.0557 c -1.19988,-1.55833 -2.58425,-2.96268 -4.1432,-4.16178 l 0.0557,-0.0929 0.83608,-4.05031 -2.89839,-1.67215 -3.08418,2.76833 -0.0372,0.0743 c -1.7919,-0.74334 -3.6963,-1.24424 -5.6853,-1.50493 v -0.11148 l -1.28198,-3.92025 h -3.36287 z m 1.69073,6.37273 c 11.07629,1e-5 20.06575,8.98947 20.06575,20.06576 10e-6,11.07629 -8.98946,20.06576 -20.06575,20.06576 -11.07631,-10e-6 -20.06576,-8.98946 -20.06576,-20.06576 0,-11.07631 8.98946,-20.06576 20.06576,-20.06576 z"
           id="path3348"
           inkscape:connector-curvature="0" />
        <path
           style="fill:url(#linearGradient3072);fill-opacity:1;stroke:none;stroke-width:0.75203526"
           d="m 424.67773,552.45117 a 20.278093,20.278093 0 0 0 -20.27734,20.2793 20.278093,20.278093 0 0 0 20.27734,20.27734 20.278093,20.278093 0 0 0 20.2793,-20.27734 20.278093,20.278093 0 0 0 -20.2793,-20.2793 z m 0,14.64649 a 5.6317873,5.6317873 0 0 1 5.63282,5.63281 5.6317873,5.6317873 0 0 1 -5.63282,5.63086 5.6317873,5.6317873 0 0 1 -5.63086,-5.63086 5.6317873,5.6317873 0 0 1 5.63086,-5.63281 z"
           id="path3350"
           inkscape:connector-curvature="0" />
        <path
           style="fill:url(#linearGradient3074);fill-opacity:1;stroke:none;stroke-width:0.66541338"
           d="m 424.67773,554.78711 a 17.942396,17.942396 0 0 0 -17.9414,17.94336 17.942396,17.942396 0 0 0 17.9414,17.9414 17.942396,17.942396 0 0 0 17.94336,-17.9414 17.942396,17.942396 0 0 0 -17.94336,-17.94336 z m 0,12.31055 a 5.6317873,5.6317873 0 0 1 5.63282,5.63281 5.6317873,5.6317873 0 0 1 -5.63282,5.63086 5.6317873,5.6317873 0 0 1 -5.63086,-5.63086 5.6317873,5.6317873 0 0 1 5.63086,-5.63281 z"
           id="path3352"
           inkscape:connector-curvature="0" />
        <path
           style="fill:url(#linearGradient3076);fill-opacity:1;stroke:none;stroke-width:0.31105122"
           d="m 424.67773,564.34375 a 8.3872738,8.3872738 0 0 0 -8.38671,8.38672 8.3872738,8.3872738 0 0 0 8.38671,8.38672 8.3872738,8.3872738 0 0 0 8.38672,-8.38672 8.3872738,8.3872738 0 0 0 -8.38672,-8.38672 z m 0,2.75391 a 5.6317873,5.6317873 0 0 1 5.63282,5.63281 5.6317873,5.6317873 0 0 1 -5.63282,5.63086 5.6317873,5.6317873 0 0 1 -5.63086,-5.63086 5.6317873,5.6317873 0 0 1 5.63086,-5.63281 z"
           id="path3356"
           inkscape:connector-curvature="0" />
        <path
           style="fill:url(#linearGradient3078);fill-opacity:1;stroke:none;stroke-width:0.31105122"
           d="m 424.67773,564.34375 a 8.3872738,8.3872738 0 0 0 -8.38671,8.38672 8.3872738,8.3872738 0 0 0 8.38671,8.38672 8.3872738,8.3872738 0 0 0 8.38672,-8.38672 8.3872738,8.3872738 0 0 0 -8.38672,-8.38672 z m 0,2.75391 a 5.6317873,5.6317873 0 0 1 5.63282,5.63281 5.6317873,5.6317873 0 0 1 -5.63282,5.63086 5.6317873,5.6317873 0 0 1 -5.63086,-5.63086 5.6317873,5.6317873 0 0 1 5.63086,-5.63281 z"
           id="path3358"
           inkscape:connector-curvature="0" />
        <path
           style="display:inline;opacity:0.65;fill:url(#linearGradient3080);fill-opacity:1;stroke:none;stroke-width:0.20886099;filter:url(#filter1612)"
           d="m 424.67773,567.09766 c -3.10874,0 -5.63086,2.52406 -5.63086,5.63281 0,3.10875 2.52212,5.63086 5.63086,5.63086 3.10875,0 5.63282,-2.52211 5.63282,-5.63086 0,-3.10875 -2.52407,-5.63281 -5.63282,-5.63281 z m 0,2.54882 c 2.43214,0 4.50554,1.54421 5.29297,3.70508 l -10.5,-0.2207 c 0.84452,-2.045 2.85822,-3.48438 5.20703,-3.48438 z"
           id="path3368"
           inkscape:connector-curvature="0" />
        <path
           style="display:inline;fill:url(#linearGradient3082);fill-opacity:1;stroke:none;stroke-width:0.59454095"
           d="m 422.99609,546.29492 -1.28125,3.91992 v 0.11328 c -1.989,0.26069 -3.89364,0.76057 -5.68554,1.50391 l -0.0371,-0.0742 -3.08399,-2.76758 -2.89843,1.67188 0.83593,4.05078 0.0547,0.0918 c -1.55895,1.1991 -2.9427,2.60378 -4.14258,4.16211 l -0.0937,-0.0566 -4.04883,-0.85352 -1.67187,2.89844 2.74805,3.08399 0.0937,0.0371 c -0.55676,1.34195 -0.99003,2.7579 -1.28125,4.21679 -0.0971,0.4863 -0.1769,0.97227 -0.24219,1.46875 h -0.0937 l -3.9375,1.28125 v 3.36328 l 3.9375,1.28125 h 0.0937 c 0.2607,1.98971 0.77976,3.89308 1.52344,5.68555 l -0.0176,0.0195 c 3.64681,0.33772 7.54532,0.34566 11.6289,-0.0195 12.56374,-1.12348 24.12246,-5.53849 32.03125,-11.53711 l -0.24023,-0.0742 h -0.0937 c -0.26115,-1.98588 -0.7811,-3.89627 -1.52344,-5.68555 l 0.0937,-0.0371 2.74805,-3.08398 -1.67188,-2.89844 -4.04882,0.85352 -0.0937,0.0566 c -1.19988,-1.55834 -2.58363,-2.96301 -4.14258,-4.16211 l 0.0547,-0.0918 0.83593,-4.05079 -2.89843,-1.67187 -3.08399,2.76758 -0.0371,0.0742 c -1.7919,-0.74334 -3.69655,-1.24322 -5.68555,-1.50391 v -0.11328 l -1.28125,-3.91992 z m 1.68164,20.80274 a 5.6317873,5.6317873 0 0 1 5.63282,5.63281 5.6317873,5.6317873 0 0 1 -5.63282,5.63086 5.6317873,5.6317873 0 0 1 -5.63086,-5.63086 5.6317873,5.6317873 0 0 1 5.63086,-5.63281 z"
           id="path3372"
           inkscape:connector-curvature="0" />
      </g>
      <g
         id="g1080">
        <path
           style="fill:#000000;fill-opacity:1;stroke:none;filter:url(#filter3525)"
           d="m 369.21912,481.71875 -2.15625,6.59375 V 488.5 c -3.34544,0.43847 -6.54858,1.28098 -9.5625,2.53125 l -0.0625,-0.125 -5.1875,-4.65625 -4.875,2.8125 1.40625,6.8125 0.0937,0.15625 c -2.62211,2.01686 -4.95059,4.37894 -6.96875,7 l -0.15625,-0.0937 -6.8125,-1.4375 -2.8125,4.875 4.625,5.1875 0.15625,0.0625 c -1.2486,3.00951 -2.12326,6.22232 -2.5625,9.5625 h -0.15625 l -6.625,2.15625 v 5.65625 l 6.625,2.15625 h 0.15625 c 0.43848,3.34664 1.31166,6.54761 2.5625,9.5625 l -0.15625,0.0937 -4.625,5.15625 2.8125,4.90625 6.8125,-1.4375 0.125,-0.0937 c 2.02078,2.62721 4.37279,4.97922 7,7 l -0.0937,0.15625 -1.40625,6.78125 4.875,2.8125 5.1875,-4.625 0.0937,-0.15625 c 3.00659,1.24468 6.19515,2.12525 9.53125,2.5625 v 0.1875 l 2.15625,6.59375 h 5.65625 l 2.15625,-6.59375 v -0.1875 c 3.3361,-0.43725 6.52466,-1.31782 9.53125,-2.5625 l 0.0937,0.15625 5.1875,4.625 4.875,-2.8125 -1.40625,-6.78125 -0.0937,-0.15625 c 2.62721,-2.02078 4.97922,-4.37279 7,-7 l 0.125,0.0937 6.8125,1.4375 2.8125,-4.90625 -4.625,-5.15625 -0.15625,-0.0937 c 1.25084,-3.01489 2.12402,-6.21586 2.5625,-9.5625 h 0.15625 l 6.625,-2.15625 v -5.65625 l -6.625,-2.15625 h -0.15625 c -0.43925,-3.34018 -1.3139,-6.55299 -2.5625,-9.5625 l 0.15625,-0.0625 4.625,-5.1875 -2.8125,-4.875 -6.8125,1.4375 -0.15625,0.0937 c -2.01816,-2.62106 -4.34664,-4.98314 -6.96875,-7 l 0.0937,-0.15625 1.40625,-6.8125 -4.875,-2.8125 -5.1875,4.65625 -0.0625,0.125 c -3.01392,-1.25027 -6.21706,-2.09278 -9.5625,-2.53125 v -0.1875 l -2.15625,-6.59375 h -5.65625 z m 2.84375,10.71875 c 18.62999,10e-6 33.75,15.12001 33.75,33.75 1e-5,18.62998 -15.12,33.75 -33.75,33.75 -18.63002,-2e-5 -33.75,-15.12 -33.75,-33.75 0,-18.63002 15.12,-33.75 33.75,-33.75 z"
           id="path3495"
           inkscape:connector-curvature="0"
           transform="matrix(0.87593886,0,0,0.87593886,47.174103,72.408695)" />
        <path
           id="path2479"
           d="m 370.58748,494.36487 -1.88875,5.77572 v 0.16424 c -2.9304,0.38407 -5.73615,1.12206 -8.37616,2.21722 l -0.0548,-0.10949 -4.54393,-4.07859 -4.2702,2.46357 1.23179,5.96734 0.0821,0.13686 c -2.2968,1.76665 -4.33641,3.83569 -6.1042,6.13157 l -0.13686,-0.0821 -5.96733,-1.25916 -2.46358,4.2702 4.05121,4.54393 0.13687,0.0548 c -1.0937,2.63614 -1.85985,5.45037 -2.24459,8.37616 h -0.13687 l -5.80309,1.88875 v 4.95453 l 5.80309,1.88874 h 0.13687 c 0.38408,2.93145 1.14893,5.7353 2.24459,8.37616 l -0.13687,0.0821 -4.05121,4.51656 2.46358,4.29757 5.96733,-1.25916 0.10949,-0.0821 c 1.77008,2.30127 3.8303,4.36149 6.13157,6.13157 l -0.0821,0.13686 -1.23179,5.93996 4.2702,2.46358 4.54393,-4.05121 0.0821,-0.13687 c 2.63359,1.09026 5.42657,1.86159 8.34879,2.24459 v 0.16424 l 1.88874,5.77572 h 4.95453 l 1.88875,-5.77572 v -0.16424 c 2.92222,-0.383 5.7152,-1.15433 8.34879,-2.24459 l 0.0821,0.13687 4.54394,4.05121 4.2702,-2.46358 -1.23179,-5.93996 -0.0821,-0.13686 c 2.30128,-1.77008 4.3615,-3.8303 6.13158,-6.13157 l 0.10949,0.0821 5.96733,1.25916 2.46358,-4.29757 -4.05122,-4.51656 -0.13686,-0.0821 c 1.09566,-2.64086 1.86051,-5.44471 2.24459,-8.37616 h 0.13687 l 5.80309,-1.88874 v -4.95453 l -5.80309,-1.88875 h -0.13687 c -0.38475,-2.92579 -1.15089,-5.74002 -2.24459,-8.37616 l 0.13686,-0.0548 4.05122,-4.54393 -2.46358,-4.2702 -5.96733,1.25916 -0.13687,0.0821 c -1.76778,-2.29588 -3.80739,-4.36492 -6.1042,-6.13157 l 0.0821,-0.13686 1.23179,-5.96734 -4.2702,-2.46357 -4.54394,4.07859 -0.0547,0.10949 c -2.64001,-1.09516 -5.44577,-1.83315 -8.37617,-2.21722 v -0.16424 l -1.88874,-5.77572 h -4.95453 z m 2.49095,9.38897 c 16.31873,10e-6 29.56294,13.2442 29.56294,29.56293 0,16.31873 -13.2442,29.56294 -29.56294,29.56294 -16.31876,-2e-5 -29.56294,-13.2442 -29.56294,-29.56294 0,-16.31875 13.2442,-29.56293 29.56294,-29.56293 z"
           style="fill:url(#linearGradient3056);fill-opacity:1;stroke:none;stroke-width:0.87593883"
           inkscape:connector-curvature="0" />
        <path
           style="fill:url(#linearGradient3058);fill-opacity:1;stroke:none;stroke-width:1.10797572"
           d="m 373.06445,503.43555 a 29.875772,29.875772 0 0 0 -29.875,29.875 29.875772,29.875772 0 0 0 29.875,29.87695 29.875772,29.875772 0 0 0 29.87696,-29.87695 29.875772,29.875772 0 0 0 -29.87696,-29.875 z m 0,21.57812 a 8.297328,8.297328 0 0 1 8.29688,8.29688 8.297328,8.297328 0 0 1 -8.29688,8.29882 8.297328,8.297328 0 0 1 -8.29687,-8.29882 8.297328,8.297328 0 0 1 8.29687,-8.29688 z"
           id="path3331"
           inkscape:connector-curvature="0" />
        <path
           style="fill:url(#linearGradient3060);fill-opacity:1;stroke:none;stroke-width:0.98035538"
           d="m 373.06445,506.87695 a 26.434582,26.434582 0 0 0 -26.43359,26.4336 26.434582,26.434582 0 0 0 26.43359,26.43554 26.434582,26.434582 0 0 0 26.43555,-26.43554 26.434582,26.434582 0 0 0 -26.43555,-26.4336 z m 0,18.13672 a 8.297328,8.297328 0 0 1 8.29688,8.29688 8.297328,8.297328 0 0 1 -8.29688,8.29882 8.297328,8.297328 0 0 1 -8.29687,-8.29882 8.297328,8.297328 0 0 1 8.29687,-8.29688 z"
           id="path3267"
           inkscape:connector-curvature="0" />
        <path
           style="fill:url(#linearGradient3062);fill-opacity:1;stroke:none;stroke-width:0.45827264"
           d="m 373.06445,520.95508 a 12.356994,12.356994 0 0 0 -12.35742,12.35547 12.356994,12.356994 0 0 0 12.35742,12.35742 12.356994,12.356994 0 0 0 12.35742,-12.35742 12.356994,12.356994 0 0 0 -12.35742,-12.35547 z m 0,4.05859 a 8.297328,8.297328 0 0 1 8.29688,8.29688 8.297328,8.297328 0 0 1 -8.29688,8.29882 8.297328,8.297328 0 0 1 -8.29687,-8.29882 8.297328,8.297328 0 0 1 8.29687,-8.29688 z"
           id="path3281"
           inkscape:connector-curvature="0" />
        <path
           style="fill:url(#linearGradient3064);fill-opacity:1;stroke:none;stroke-width:0.45827264"
           d="m 373.06445,520.95508 a 12.356994,12.356994 0 0 0 -12.35742,12.35547 12.356994,12.356994 0 0 0 12.35742,12.35742 12.356994,12.356994 0 0 0 12.35742,-12.35742 12.356994,12.356994 0 0 0 -12.35742,-12.35547 z m 0,4.05859 a 8.297328,8.297328 0 0 1 8.29688,8.29688 8.297328,8.297328 0 0 1 -8.29688,8.29882 8.297328,8.297328 0 0 1 -8.29687,-8.29882 8.297328,8.297328 0 0 1 8.29687,-8.29688 z"
           id="path3557"
           inkscape:connector-curvature="0" />
        <path
           style="display:inline;opacity:0.65;fill:url(#linearGradient3066);fill-opacity:1;stroke:none;stroke-width:0.30771548;filter:url(#filter1351)"
           d="m 373.06445,525.01367 c -4.58012,0 -8.29687,3.71675 -8.29687,8.29688 0,4.58012 3.71675,8.29882 8.29687,8.29882 4.58013,0 8.29688,-3.7187 8.29688,-8.29882 0,-4.58013 -3.71675,-8.29688 -8.29688,-8.29688 z m 0,3.75391 c 3.58327,0 6.6387,2.27537 7.79883,5.45898 l -15.4707,-0.32422 c 1.24422,-3.01289 4.21135,-5.13476 7.67187,-5.13476 z"
           id="path3802"
           inkscape:connector-curvature="0" />
        <path
           style="display:inline;fill:url(#linearGradient3068);fill-opacity:1;stroke:none;stroke-width:0.87593883"
           d="m 370.58789,494.36523 -1.88867,5.77539 v 0.16407 c -2.9304,0.38407 -5.73694,1.12163 -8.37695,2.21679 l -0.0547,-0.10937 -4.54493,-4.07813 -4.26953,2.46289 1.23242,5.96875 0.082,0.13672 c -2.29682,1.76665 -4.33769,3.83498 -6.10547,6.13086 l -0.13672,-0.082 -5.9668,-1.25976 -2.46289,4.27148 4.05078,4.54297 0.13672,0.0547 c -0.82028,1.97711 -1.45961,4.06545 -1.88867,6.21484 -0.14302,0.71646 -0.25928,1.43066 -0.35547,2.16211 h -0.13672 l -5.80273,1.88867 v 4.95508 l 5.80273,1.88867 h 0.13672 c 0.38408,2.93145 1.14848,5.73414 2.24414,8.375 l -0.0273,0.0273 c 5.37286,0.49756 11.11842,0.51059 17.13477,-0.0273 18.51018,-1.65522 35.53935,-8.16027 47.19141,-16.99805 l -0.35548,-0.10937 h -0.13672 c -0.38476,-2.92579 -1.15045,-5.74081 -2.24414,-8.37695 l 0.13672,-0.0547 4.05078,-4.54297 -2.46289,-4.27149 -5.96679,1.25977 -0.13868,0.082 c -1.76778,-2.29588 -3.8067,-4.36421 -6.10351,-6.13086 l 0.082,-0.13672 1.23242,-5.96875 -4.27148,-2.46289 -4.54297,4.07813 -0.0547,0.10937 c -2.64001,-1.09516 -5.44656,-1.83272 -8.37696,-2.2168 v -0.16406 l -1.88867,-5.77539 z m 2.47656,30.64844 a 8.297328,8.297328 0 0 1 8.29688,8.29688 8.297328,8.297328 0 0 1 -8.29688,8.29882 8.297328,8.297328 0 0 1 -8.29687,-8.29882 8.297328,8.297328 0 0 1 8.29687,-8.29688 z"
           id="path2443"
           inkscape:connector-curvature="0" />
      </g>
    </g>
  </g>
</svg>
