<?xml version="1.0" encoding="UTF-8" standalone="no"?>
<svg
   xmlns:dc="http://purl.org/dc/elements/1.1/"
   xmlns:cc="http://creativecommons.org/ns#"
   xmlns:rdf="http://www.w3.org/1999/02/22-rdf-syntax-ns#"
   xmlns:svg="http://www.w3.org/2000/svg"
   xmlns="http://www.w3.org/2000/svg"
   xmlns:sodipodi="http://sodipodi.sourceforge.net/DTD/sodipodi-0.dtd"
   xmlns:inkscape="http://www.inkscape.org/namespaces/inkscape"
   version="1.1"
   id="Layer_1"
   x="0px"
   y="0px"
   width="209.48628"
   height="239.10521"
   viewBox="0 0 209.48628 239.10521"
   enable-background="new 0 0 100 100"
   xml:space="preserve"
   inkscape:version="0.48.5 r10040"
   sodipodi:docname="Noun_project_1248.svg"><metadata
     id="metadata11"><rdf:RDF><cc:Work
         rdf:about=""><dc:format>image/svg+xml</dc:format><dc:type
           rdf:resource="http://purl.org/dc/dcmitype/StillImage" /></cc:Work></rdf:RDF></metadata><defs
     id="defs9" /><sodipodi:namedview
     pagecolor="#ffffff"
     bordercolor="#666666"
     borderopacity="1"
     objecttolerance="10"
     gridtolerance="10"
     guidetolerance="10"
     inkscape:pageopacity="0"
     inkscape:pageshadow="2"
     inkscape:window-width="1280"
     inkscape:window-height="669"
     id="namedview7"
     showgrid="false"
     inkscape:snap-object-midpoints="true"
     inkscape:snap-center="true"
     inkscape:snap-global="false"
     showguides="true"
     inkscape:guide-bbox="true"
     inkscape:object-paths="true"
     inkscape:object-nodes="true"
     inkscape:snap-intersection-paths="true"
     fit-margin-top="0"
     fit-margin-left="0"
     fit-margin-right="0"
     fit-margin-bottom="0"
     inkscape:zoom="1.3876971"
     inkscape:cx="1.4813044"
     inkscape:cy="75.733218"
     inkscape:window-x="0"
     inkscape:window-y="1"
     inkscape:window-maximized="1"
     inkscape:current-layer="g3" /><g
     id="g3"
     transform="translate(-14.522081,-10.263355)"><g
       id="g4003"
       transform="matrix(3.0620712,0,0,3.0620712,-28.524111,-19.196521)"
       style="fill:#666666;fill-opacity:1"><rect
         transform="matrix(0.63434481,0,0,0.85425101,20.789388,-1.5451662)"
         ry="0"
         y="69.808914"
         x="25.605095"
         height="31.464968"
         width="12.866242"
         id="rect3999"
         style="fill:#666666;fill-opacity:1;fill-rule:nonzero;stroke:none" /><rect
         style="fill:#666666;fill-opacity:1;fill-rule:nonzero;stroke:none"
         id="rect4001"
         width="12.866242"
         height="31.464968"
         x="25.605095"
         y="69.808914"
         ry="0"
         transform="matrix(0.63434481,0,0,0.85425101,34.330789,-1.5451662)" /></g><rect
       style="fill:#873636;fill-opacity:1;fill-rule:nonzero;stroke:none"
       id="rect3032"
       width="28.089518"
       height="7.4156327"
       x="34.381569"
       y="17.379366"
       ry="1.498108"
       transform="matrix(3.0620712,0,0,3.0620712,-30.186706,-22.998692)" /><g
       id="g3002"
       transform="translate(1.0429688e-6,-2.4364416)" /><rect
       ry="2.1648479"
       transform="matrix(1.4137042,0,0,3.1784997,49.161127,31.052393)"
       y="11.012409"
       x="37.827217"
       height="19.700115"
       width="21.872372"
       id="rect3812"
       style="fill:#666666;fill-opacity:1;fill-rule:nonzero;stroke:none" /><rect
       style="fill:#808080;fill-opacity:1;fill-rule:nonzero;stroke:none"
       id="rect3020"
       width="21.872372"
       height="19.700115"
       x="37.827217"
       y="11.012409"
       transform="matrix(3.1784997,0,0,3.1784997,-36.896308,-24.739584)"
       ry="2.1648479" /><g
       id="g3026"
       transform="matrix(3.0620712,0,0,3.0620712,-30.301396,-21.393133)"
       style="fill:#ffffff"><path
         transform="matrix(1.9375,0,0,1.9375,-38.028526,-15.586236)"
         d="m 43.520027,17.304461 c 0,0.992858 -0.804871,1.797729 -1.797729,1.797729 -0.992859,0 -1.797729,-0.804871 -1.797729,-1.797729 0,-0.992859 0.80487,-1.79773 1.797729,-1.79773 0.992858,0 1.797729,0.804871 1.797729,1.79773 z"
         sodipodi:ry="1.7977291"
         sodipodi:rx="1.7977291"
         sodipodi:cy="17.304461"
         sodipodi:cx="41.722298"
         id="path3022"
         style="fill:#ffffff;stroke:none"
         sodipodi:type="arc" /><path
         sodipodi:type="arc"
         style="fill:#ffffff;stroke:none"
         id="path3024"
         sodipodi:cx="41.722298"
         sodipodi:cy="17.304461"
         sodipodi:rx="1.7977291"
         sodipodi:ry="1.7977291"
         d="m 43.520027,17.304461 c 0,0.992858 -0.804871,1.797729 -1.797729,1.797729 -0.992859,0 -1.797729,-0.804871 -1.797729,-1.797729 0,-0.992859 0.80487,-1.79773 1.797729,-1.79773 0.992858,0 1.797729,0.804871 1.797729,1.79773 z"
         transform="matrix(1.9375,0,0,1.9375,-26.717814,-15.586236)" /></g><rect
       style="fill:#ffffff;fill-opacity:1;fill-rule:nonzero;stroke:none"
       id="rect3030"
       width="16.029751"
       height="4.7939444"
       x="40.299095"
       y="23.746325"
       ry="2.2471614"
       transform="matrix(3.0620712,0,0,3.0620712,-29.842663,-21.278453)" /><path
       sodipodi:type="arc"
       style="fill:#2a4b8d;fill-opacity:1;fill-rule:nonzero;stroke:none"
       id="path3802"
       sodipodi:cx="24.119532"
       sodipodi:cy="14.458056"
       sodipodi:rx="0.82395917"
       sodipodi:ry="0.82395917"
       d="m 24.943491,14.458056 c 0,0.455061 -0.368899,0.82396 -0.823959,0.82396 -0.45506,0 -0.82396,-0.368899 -0.82396,-0.82396 0,-0.45506 0.3689,-0.823959 0.82396,-0.823959 0.45506,0 0.823959,0.368899 0.823959,0.823959 z"
       transform="matrix(4.5235141,0,0,4.5235141,-8.3239923,-31.857259)" /><path
       transform="matrix(2.1573682,0,0,2.1573682,50.695947,0.40300458)"
       d="m 24.943491,14.458056 c 0,0.455061 -0.368899,0.82396 -0.823959,0.82396 -0.45506,0 -0.82396,-0.368899 -0.82396,-0.82396 0,-0.45506 0.3689,-0.823959 0.82396,-0.823959 0.45506,0 0.823959,0.368899 0.823959,0.823959 z"
       sodipodi:ry="0.82395917"
       sodipodi:rx="0.82395917"
       sodipodi:cy="14.458056"
       sodipodi:cx="24.119532"
       id="path3806"
       style="fill:#ffffff;fill-opacity:1;fill-rule:nonzero;stroke:none"
       sodipodi:type="arc" /><path
       transform="matrix(4.5235141,0,0,4.5235141,26.310213,-31.857259)"
       d="m 24.943491,14.458056 c 0,0.455061 -0.368899,0.82396 -0.823959,0.82396 -0.45506,0 -0.82396,-0.368899 -0.82396,-0.82396 0,-0.45506 0.3689,-0.823959 0.82396,-0.823959 0.45506,0 0.823959,0.368899 0.823959,0.823959 z"
       sodipodi:ry="0.82395917"
       sodipodi:rx="0.82395917"
       sodipodi:cy="14.458056"
       sodipodi:cx="24.119532"
       id="path3808"
       style="fill:#2a4b8d;fill-opacity:1;fill-rule:nonzero;stroke:none"
       sodipodi:type="arc" /><path
       sodipodi:type="arc"
       style="fill:#ffffff;fill-opacity:1;fill-rule:nonzero;stroke:none"
       id="path3810"
       sodipodi:cx="24.119532"
       sodipodi:cy="14.458056"
       sodipodi:rx="0.82395917"
       sodipodi:ry="0.82395917"
       d="m 24.943491,14.458056 c 0,0.455061 -0.368899,0.82396 -0.823959,0.82396 -0.45506,0 -0.82396,-0.368899 -0.82396,-0.82396 0,-0.45506 0.3689,-0.823959 0.82396,-0.823959 0.45506,0 0.823959,0.368899 0.823959,0.823959 z"
       transform="matrix(2.1573682,0,0,2.1573682,85.330152,0.40300458)" /><path
       style="font-size:medium;font-style:normal;font-variant:normal;font-weight:normal;font-stretch:normal;text-indent:0;text-align:start;text-decoration:none;line-height:normal;letter-spacing:normal;word-spacing:normal;text-transform:none;direction:ltr;block-progression:tb;writing-mode:lr-tb;text-anchor:start;baseline-shift:baseline;color:#000000;fill:#666666;fill-opacity:1;stroke:none;stroke-width:6;marker:none;visibility:visible;display:inline;overflow:visible;enable-background:accumulate;font-family:Sans;-inkscape-font-specification:Sans"
       d="m 35.341631,32.757945 c -4.625318,-0.122451 -9.633386,1.637489 -12.497881,3.898305 -2.864495,2.260816 -4.921603,5.701335 -4.8125,10.28125 l 0.0625,3 6,-0.15625 -0.0625,-3 c -0.06476,-2.718673 0.956185,-4.153167 2.5625,-5.4375 1.606315,-1.284333 3.851773,-2.129474 5.5,-2.53125 l 2.9375,-0.6875 z"
       id="path3894"
       inkscape:connector-curvature="0"
       sodipodi:nodetypes="czccccsccc"
       transform="matrix(3.0620712,0,0,3.0620712,-29.945571,-15.039627)" /><path
       style="font-size:medium;font-style:normal;font-variant:normal;font-weight:normal;font-stretch:normal;text-indent:0;text-align:start;text-decoration:none;line-height:normal;letter-spacing:normal;word-spacing:normal;text-transform:none;direction:ltr;block-progression:tb;writing-mode:lr-tb;text-anchor:start;baseline-shift:baseline;color:#000000;fill:#666666;fill-opacity:1;stroke:none;stroke-width:6;marker:none;visibility:visible;display:inline;overflow:visible;enable-background:accumulate;font-family:Sans;-inkscape-font-specification:Sans"
       d="M 78.875,21.5 73,22.75 l 0.625,2.90625 c 0.357118,1.693603 -0.390484,3.184901 -2.125,4.65625 -1.734516,1.471349 -4.410622,2.48753 -6.375,2.59375 l -3,0.15625 0.34375,6 3,-0.15625 C 68.982772,38.716235 72.540757,37.279221 75.375,34.875 78.209243,32.470779 80.391139,28.663655 79.5,24.4375 L 78.875,21.5 z"
       id="path3890"
       inkscape:connector-curvature="0"
       transform="matrix(3.0620712,0,0,3.0620712,-29.945571,-15.039627)" /><rect
       style="fill:#808080;fill-opacity:1;fill-rule:nonzero;stroke:none"
       id="rect3816"
       width="33.898304"
       height="32.203388"
       x="31.991526"
       y="31.991526"
       ry="3.13187"
       transform="matrix(3.0620712,0,0,3.0620712,-31.761681,-22.329509)" /><path
       style="fill:#4d4d4d;fill-opacity:1;fill-rule:nonzero;stroke:none"
       d="m 117.09375,-18.28125 -17.875,30.9375 17.875,30.96875 35.75,0 17.875,-30.96875 -17.875,-30.9375 -4.84375,0 0,27.7964682 c 0,7.0545878 -5.81067,12.7187498 -13.03125,12.7187498 -7.22058,0 -13.03125,-5.664162 -13.03125,-12.7187498 l 0,-27.7964682 z"
       id="path3876"
       inkscape:connector-curvature="0"
       transform="matrix(0.64659148,-0.11591082,0.11591082,0.64659148,112.15608,48.782556)"
       sodipodi:nodetypes="cccccccssscc" /><path
       sodipodi:nodetypes="cccccccssscc"
       transform="matrix(-0.64921368,0.10018696,-0.10018696,-0.64921368,126.62302,143.53435)"
       inkscape:connector-curvature="0"
       id="path3882"
       d="m 117.09375,-18.28125 -17.875,30.9375 17.875,30.96875 35.75,0 17.875,-30.96875 -17.875,-30.9375 -4.84375,0 0,27.7964682 c 0,7.0545878 -5.81067,12.7187498 -13.03125,12.7187498 -7.22058,0 -13.03125,-5.664162 -13.03125,-12.7187498 l 0,-27.7964682 z"
       style="fill:#4d4d4d;fill-opacity:1;fill-rule:nonzero;stroke:none" /><rect
       style="fill:#4d4d4d;fill-opacity:1;fill-rule:nonzero;stroke:none"
       id="rect4007"
       width="9.2993631"
       height="4.0764332"
       x="13.630573"
       y="74.394905"
       transform="matrix(3.5234791,0,0,3.7318992,32.9557,-43.478558)"
       ry="1.2738854" /><rect
       ry="1.2738854"
       transform="matrix(3.5234791,0,0,3.7318992,74.420434,-43.478558)"
       y="74.394905"
       x="13.630573"
       height="4.0764332"
       width="9.2993631"
       id="rect4009"
       style="fill:#4d4d4d;fill-opacity:1;fill-rule:nonzero;stroke:none" /></g></svg>