<?xml version="1.0" encoding="utf-8"?>
<!-- Generator: Adobe Illustrator 15.1.0, SVG Export Plug-In . SVG Version: 6.00 Build 0)  -->
<!DOCTYPE svg PUBLIC "-//W3C//DTD SVG 1.1//EN" "http://www.w3.org/Graphics/SVG/1.1/DTD/svg11.dtd">
<svg version="1.1"
	 id="svg2" xmlns:inkscape="http://www.inkscape.org/namespaces/inkscape" xmlns:sodipodi="http://sodipodi.sourceforge.net/DTD/sodipodi-0.dtd" xmlns:svg="http://www.w3.org/2000/svg" xmlns:rdf="http://www.w3.org/1999/02/22-rdf-syntax-ns#" xmlns:cc="http://creativecommons.org/ns#" xmlns:dc="http://purl.org/dc/elements/1.1/" inkscape:output_extension="org.inkscape.output.svg.inkscape" inkscape:version="0.46" sodipodi:docname="MediaWiki-notext.svg" sodipodi:version="0.32"
	 xmlns="http://www.w3.org/2000/svg" xmlns:xlink="http://www.w3.org/1999/xlink" x="0px" y="0px" width="685.5px" height="463px"
	 viewBox="0 -87.056 685.5 463" enable-background="new 0 -87.056 685.5 463" xml:space="preserve">
<defs>
	
	
		<inkscape:perspective  inkscape:persp3d-origin="372.04724 : 350.78739 : 1" inkscape:vp_z="744.09448 : 526.18109 : 1" inkscape:vp_y="0 : 1000 : 0" inkscape:vp_x="0 : 526.18109 : 1" sodipodi:type="inkscape:persp3d" id="perspective10">
		</inkscape:perspective>
	
		<inkscape:perspective  inkscape:persp3d-origin="372.04724 : 350.78739 : 1" inkscape:vp_z="744.09448 : 526.18109 : 1" inkscape:vp_y="0 : 1000 : 0" inkscape:vp_x="0 : 526.18109 : 1" sodipodi:type="inkscape:persp3d" id="perspective2390">
		</inkscape:perspective>
	
		<inkscape:perspective  inkscape:persp3d-origin="372.04724 : 350.78739 : 1" inkscape:vp_z="744.09448 : 526.18109 : 1" inkscape:vp_y="0 : 1000 : 0" inkscape:vp_x="0 : 526.18109 : 1" sodipodi:type="inkscape:persp3d" id="perspective2455">
		</inkscape:perspective>
</defs>
<sodipodi:namedview  inkscape:window-height="781" inkscape:window-x="0" inkscape:window-y="49" inkscape:window-width="1280" inkscape:document-units="px" showgrid="false" inkscape:current-layer="layer1" inkscape:cy="91.753129" inkscape:cx="279.578" inkscape:zoom="1.3829818" inkscape:pageshadow="2" inkscape:pageopacity="0.0" pagecolor="#ffffff" bordercolor="#666666" borderopacity="1.0" id="base">
	</sodipodi:namedview>
<g>
	<path id="path2411" sodipodi:nodetypes="cccccccccc" fill="#02296B" d="M566.363,7.865v266v12.97h-69.03v-11.513h35.847
		l0.091-255.957h-35.938v-11.5H566.363z"/>
	<path id="path2413" sodipodi:nodetypes="cccccccccc" fill="#02296B" d="M668.462,7.865v266v12.97H599.43v-11.513h35.848
		l0.091-255.957h-35.938v-11.5H668.462z"/>
	<path id="path2403" sodipodi:nodetypes="cccccccccc" fill="#02296B" d="M119.138,7.865v266v12.97h69.031v-11.513h-35.847
		l-0.09-255.957h35.938v-11.5H119.138z"/>
	<path id="rect2481" sodipodi:nodetypes="cccccccccc" fill="#02296B" d="M17.039,7.865v266v12.97H86.07v-11.513H50.224
		l-0.09-255.957h35.938v-11.5H17.039z"/>
	<g>
		
			<image overflow="visible" opacity="0.65" width="507" height="466" xlink:href="1CDABAC6.png"  transform="matrix(1 0 0 1 97.25 -86.3875)">
		</image>
		<g>
			<g>
				<linearGradient id="SVGID_1_" gradientUnits="userSpaceOnUse" x1="95.2812" y1="-85.9626" x2="95.3126" y2="-87.0253">
					<stop  offset="0" style="stop-color:#000000"/>
					<stop  offset="1" style="stop-color:#000000;stop-opacity:0"/>
				</linearGradient>
				
					<path inkscape:radius="-0.5" inkscape:original="M 11.78125 19 C 11.367 19 11.234304 19.070411 11.125 19.15625 C 11.015696 19.242089 10.873873 19.423275 10.75 19.78125 L 9.125 25 L 37.8125 25 L 36.15625 19.96875 C 35.947593 19.450065 35.798273 19.282879 35.65625 19.1875 C 35.514227 19.092121 35.297418 19 34.8125 19 L 11.78125 19 z " sodipodi:type="inkscape:offset" opacity="0.15" fill="none" stroke="url(#SVGID_1_)" enable-background="new    " d="
					M219.057,117.801c-1.813,0-2.831,0.219-3.17,0.319c-0.341,0.099-0.015,0.077-0.318,0.316c-0.06,0.046-1.179,0.804-2.22,3.806
					l-14.274,46.314h277.249l-14.593-44.094v-0.317c-1.765-4.284-2.664-5.051-3.172-5.395c-0.715-0.474-1.429-0.952-5.708-0.952
					H219.057V117.801z"/>
				
					<linearGradient id="SVGID_2_" gradientUnits="userSpaceOnUse" x1="337.5269" y1="-511.8835" x2="337.5269" y2="-335.7593" gradientTransform="matrix(1.0019 0 0 -1.3412 -0.1533 -461.876)">
					<stop  offset="0" style="stop-color:#EABA6F"/>
					<stop  offset="1" style="stop-color:#B97A1B"/>
				</linearGradient>
				<path sodipodi:nodetypes="ccccccccccccccc" fill="url(#SVGID_2_)" stroke="#A0670C" d="M219.057,97.5
					c-13.659,0-20.931,7.058-24.742,18.08l-19.033,60.906l-9.833,83.432h9.833v66.932c0,13.581,11.089,24.425,24.744,24.425h275.66
					c13.66,0,24.747-10.844,24.747-24.425v-66.932h10.148l-10.148-83.432l-19.668-59.637c-4.789-14.513-14.255-19.35-27.916-19.35
					H219.057z"/>
				<linearGradient id="SVGID_3_" gradientUnits="userSpaceOnUse" x1="122.75" y1="-76.8064" x2="125" y2="-62.4314">
					<stop  offset="0" style="stop-color:#FFFFFF"/>
					<stop  offset="1" style="stop-color:#FFFFFF;stop-opacity:0"/>
				</linearGradient>
				<path sodipodi:nodetypes="ccsccsccc" opacity="0.6935" fill="none" stroke="url(#SVGID_3_)" enable-background="new    " d="
					M490.282,177.754l-19.032-57.732c-1.885-5.686-4.161-8.213-6.661-9.834c-2.499-1.621-6.106-2.537-11.736-2.537H219.057
					c-5.08,0-7.76,1.231-9.833,2.854c-2.072,1.626-3.92,3.991-5.394,8.249l-18.715,60.274v0.633"/>
				
					<linearGradient id="SVGID_4_" gradientUnits="userSpaceOnUse" x1="337.6973" y1="382.8782" x2="337.6973" y2="424.2921" gradientTransform="matrix(1 0 0 1 0 -260)">
					<stop  offset="0" style="stop-color:#E9B96E"/>
					<stop  offset="1" style="stop-color:#E9B96E;stop-opacity:0"/>
				</linearGradient>
				<path opacity="0.6" fill="url(#SVGID_4_)" enable-background="new    " d="M219.057,112.727c-4.203,0-5.551,0.714-6.661,1.586
					c-1.109,0.871-2.549,2.71-3.808,6.342l-16.494,52.978h291.207l-16.813-51.072c-2.118-5.265-3.627-6.964-5.074-7.929
					c-1.447-0.968-3.647-1.904-8.562-1.904H219.057V112.727z"/>
				
					<linearGradient id="SVGID_5_" gradientUnits="userSpaceOnUse" x1="-266.9609" y1="-576.2927" x2="-246.2111" y2="-576.2927" gradientTransform="matrix(-1 0 0 -1 195.9258 -433.1128)">
					<stop  offset="0" style="stop-color:#E9B96E"/>
					<stop  offset="1" style="stop-color:#E9B96E;stop-opacity:0"/>
				</linearGradient>
				<path opacity="0.6705" fill="url(#SVGID_5_)" enable-background="new    " d="M456.221,112.727c4.202,0,5.552,0.714,6.66,1.586
					c1.111,0.871,2.561,2.71,3.808,6.342l16.497,52.978h-49.49v-60.906H456.221z"/>
				<g transform="matrix(0.714866,0.1915478,0.1915478,-0.714866,-11.345948,23.285684)">
					
						<linearGradient id="SVGID_6_" gradientUnits="userSpaceOnUse" x1="2216.4651" y1="-1481.5083" x2="2314.3928" y2="-1481.1827" gradientTransform="matrix(0.3904 -0.2781 0.2237 0.4779 40.7661 1539.8534)">
						<stop  offset="0" style="stop-color:#729FCF"/>
						<stop  offset="1" style="stop-color:#295EAD"/>
					</linearGradient>
					
						<path inkscape:radius="0.25806981" inkscape:original="M 54.65625 27.71875 C 52.399042 27.71875 50.59375 29.348078 50.59375 31.375 L 50.59375 42.0625 C 50.59375 44.089423 52.399042 45.71875 54.65625 45.71875 L 55.5 45.71875 C 57.757208 45.71875 59.593752 44.089424 59.59375 42.0625 L 59.59375 31.375 C 59.59375 29.348077 57.757206 27.71875 55.5 27.71875 L 54.65625 27.71875 z " sodipodi:type="inkscape:offset" fill="url(#SVGID_6_)" stroke="#204A87" stroke-width="1.3512" stroke-linecap="round" stroke-linejoin="round" d="
						M591.301,114.778c-24.154,0.099-43.82,17.696-43.871,39.829l-0.294,108.486c-0.065,22.129,19.5,39.572,43.655,39.473
						l8.577-0.033c24.173-0.101,44.146-17.671,44.205-39.829l0.283-108.493c0.055-22.158-19.813-39.57-43.981-39.466
						L591.301,114.778z"/>
					<linearGradient id="SVGID_7_" gradientUnits="userSpaceOnUse" x1="954.2194" y1="-1519.7317" x2="964.9308" y2="-1528.1782">
						<stop  offset="0" style="stop-color:#FFFFFF"/>
						<stop  offset="1" style="stop-color:#FFFFFF;stop-opacity:0"/>
					</linearGradient>
					
						<path inkscape:radius="0" inkscape:original="M 54.65625 28.8125 C 52.950172 28.8125 51.5625 29.967607 51.5625 31.40625 L 51.5625 42.1875 C 51.5625 43.626143 52.950172 44.78125 54.65625 44.78125 L 55.5 44.78125 C 57.206078 44.78125 58.59375 43.626143 58.59375 42.1875 L 58.59375 31.40625 C 58.59375 29.967607 57.206078 28.8125 55.5 28.8125 L 54.65625 28.8125 z " sodipodi:type="inkscape:offset" opacity="0.5" fill="none" stroke="url(#SVGID_7_)" stroke-width="1.3512" stroke-linecap="round" stroke-linejoin="round" enable-background="new    " d="
						M591.212,127.886c-17.31,0.084-31.431,11.88-31.489,26.479l-0.315,109.446c-0.03,14.607,14.02,26.255,31.35,26.169l8.551-0.044
						c17.326-0.081,31.444-11.883,31.474-26.491l0.315-109.438c0.057-14.601-14.002-26.259-31.319-26.17L591.212,127.886z"/>
					
						<linearGradient id="SVGID_8_" gradientUnits="userSpaceOnUse" x1="2111.084" y1="-830.9671" x2="2125.2197" y2="-816.7371" gradientTransform="matrix(0.144 -0.5313 0.5303 0.1404 725.4735 1245.2379)">
						<stop  offset="0" style="stop-color:#EEEEEC"/>
						<stop  offset="1" style="stop-color:#A2A298"/>
					</linearGradient>
					
						<path sodipodi:nodetypes="ccccccc" fill="url(#SVGID_8_)" stroke="#888A85" stroke-width="1.3512" stroke-linecap="round" stroke-linejoin="round" d="
						M581.928-128.253c0.014,0.094,0.011,0.21-0.004,0.317l-0.009,257.985c0.849,14.415,27.484,15.366,29.187,0.007l0.315-257.676
						c-0.026-0.108-0.025-0.214,0.004-0.316L581.928-128.253z"/>
					
						<linearGradient id="SVGID_9_" gradientUnits="userSpaceOnUse" x1="2811.958" y1="-1480.2815" x2="2782.25" y2="-1483.1082" gradientTransform="matrix(0.2768 -0.1871 0.158 0.3212 32.1435 1216.7157)">
						<stop  offset="0" style="stop-color:#FFFFFF"/>
						<stop  offset="1" style="stop-color:#FFFFFF;stop-opacity:0.2938"/>
					</linearGradient>
					<path opacity="0.3" fill="url(#SVGID_9_)" enable-background="new    " d="M567.674,163.047l0.892-0.004
						c3.736-0.019,6.721,7.251,6.693,16.245l-0.324,75.175c-0.036,8.99-3.104,16.294-6.825,16.309l-0.899,0.004
						c-3.737,0.014-6.729-7.26-6.702-16.253l0.328-75.169C560.875,170.357,563.942,163.061,567.674,163.047z"/>
					
						<linearGradient id="SVGID_10_" gradientUnits="userSpaceOnUse" x1="3134.2041" y1="-1280.7837" x2="3153.8801" y2="-1280.7837" gradientTransform="matrix(0.2325 -0.1871 0.1327 0.3212 32.4821 1216.6279)">
						<stop  offset="0" style="stop-color:#0C1D35"/>
						<stop  offset="1" style="stop-color:#FFFFFF;stop-opacity:0.2938"/>
					</linearGradient>
					<path opacity="0.3" fill="url(#SVGID_10_)" enable-background="new    " d="M595.835,162.128L595.835,162.128
						c5.497-0.026,9.904,7.238,9.878,16.228l-0.289,77.681c-0.024,8.989-4.504,16.295-9.976,16.324l0,0
						c-5.471,0.032-9.902-7.235-9.866-16.223l0.281-77.685C585.896,169.47,590.365,162.159,595.835,162.128z"/>
					
						<linearGradient id="SVGID_11_" gradientUnits="userSpaceOnUse" x1="2199.1865" y1="-1502.1704" x2="2219.4998" y2="-1502.0829" gradientTransform="matrix(0.4755 -0.2759 0.2718 0.4731 -19.3622 1535.6144)">
						<stop  offset="0" style="stop-color:#000000"/>
						<stop  offset="1" style="stop-color:#000000;stop-opacity:0"/>
					</linearGradient>
					<path opacity="0.25" fill="url(#SVGID_11_)" enable-background="new    " d="M622.547,163.047l0.889-0.005
						c3.746-0.015,6.737,7.263,6.697,16.25l-0.329,75.171c-0.021,9-3.085,16.297-6.82,16.308l-0.906,0.002
						c-3.721,0.023-6.719-7.248-6.679-16.246l0.31-75.173C615.758,170.367,618.829,163.061,622.547,163.047z"/>
				</g>
				<g transform="matrix(-0.3700418,0.6409312,0.6409312,0.3700418,9.695137,-8.240681)">
					<g transform="matrix(0.7071068,-0.7071068,0.7071068,0.7071068,-57.460697,74.506628)">
						
							<linearGradient id="SVGID_12_" gradientUnits="userSpaceOnUse" x1="285.5637" y1="695.545" x2="114.2666" y2="764.0638" gradientTransform="matrix(0.4744 0.2738 -0.2738 0.4744 -106.4962 -194.207)">
							<stop  offset="0" style="stop-color:#D3D7CF"/>
							<stop  offset="1" style="stop-color:#EEEEEC"/>
						</linearGradient>
						<linearGradient id="SVGID_13_" gradientUnits="userSpaceOnUse" x1="-250.2562" y1="-364.2823" x2="-267.707" y2="-346.705">
							<stop  offset="0" style="stop-color:#888A85"/>
							<stop  offset="1" style="stop-color:#555753"/>
						</linearGradient>
						
							<path sodipodi:nodetypes="csccsccscccccc" fill="url(#SVGID_12_)" stroke="url(#SVGID_13_)" stroke-width="1.3512" stroke-linecap="round" stroke-linejoin="round" d="
							M-233.751-28.5c-26.832,11.773-45.681,38.626-45.677,69.791c0.002,29.14,16.536,54.455,40.602,67.245l2.602,268.108
							c0.003,19.679,15.85,35.524,35.527,35.524c19.684-0.007,35.532-15.846,35.524-35.54l-2.591-268.094
							c24.068-12.794,40.598-38.107,40.604-67.248c-0.003-31.169-18.851-58.009-45.678-69.792l-0.006,60.274l-17.446,20.302
							l-26.008,0l-17.45-20.304L-233.751-28.5z"/>
						<linearGradient id="SVGID_14_" gradientUnits="userSpaceOnUse" x1="-270.5564" y1="-383.3941" x2="-299.7106" y2="-371.6983">
							<stop  offset="0" style="stop-color:#FFFFFF"/>
							<stop  offset="1" style="stop-color:#FFFFFF;stop-opacity:0"/>
						</linearGradient>
						
							<path sodipodi:nodetypes="cscccscccscccccccccc" fill="none" stroke="url(#SVGID_14_)" stroke-width="1.3512" stroke-linecap="round" d="
							M-248.339,0.131c-10.098,10.934-16.498,25.149-16.493,41.235c-0.003,23.742,13.119,44.175,32.669,54.562
							c4.849,2.419,7.918,7.274,7.933,12.692l2.6,267.94c-0.007,12.067,8.869,20.94,20.932,20.937
							c12.073,0.01,20.939-8.873,20.941-20.934l-2.601-267.944c0.016-5.417,3.087-10.269,7.929-12.687
							c19.549-10.393,32.677-30.821,32.674-54.562c0.002-16.091-6.392-30.304-16.492-41.235l-0.004,31.721
							c-0.041,3.408-1.252,6.625-3.489,9.201l-17.451,20.297c-2.699,3.322-6.82,5.363-11.103,5.394l-26.007,0
							c-4.28-0.033-8.403-2.076-11.103-5.394l-17.446-20.301c-2.245-2.572-3.453-5.792-3.494-9.199L-248.339,0.131z"/>
						
							<linearGradient id="SVGID_15_" gradientUnits="userSpaceOnUse" x1="41.9021" y1="789.1376" x2="-28.4532" y2="832.8072" gradientTransform="matrix(0.4736 0.3089 -0.2732 0.5346 -4.5984 -177.4132)">
							<stop  offset="0" style="stop-color:#2E3436"/>
							<stop  offset="1" style="stop-color:#729FCF"/>
						</linearGradient>
						<path sodipodi:nodetypes="ccccccccc" opacity="0.2311" fill="url(#SVGID_15_)" enable-background="new    " d="
							M-206.082,138.489c-6.484-0.006-11.417,5.084-11.416,11.734l0.075,207.185c0.001,6.658,4.934,11.742,11.424,11.75l5.389,0.001
							c6.491,0.003,11.732-5.216,11.732-11.743l-0.067-207.185c-0.006-6.524-5.252-11.74-11.744-11.741L-206.082,138.489z"/>
					</g>
					
						<linearGradient id="SVGID_16_" gradientUnits="userSpaceOnUse" x1="-515.5394" y1="819.1124" x2="-512.9144" y2="810.7374" gradientTransform="matrix(1 0 0 1 1.220703e-04 3.051758e-05)">
						<stop  offset="0" style="stop-color:#FFFFFF"/>
						<stop  offset="1" style="stop-color:#FFFFFF;stop-opacity:0"/>
					</linearGradient>
					<path sodipodi:nodetypes="cccccccccc" fill="none" stroke="url(#SVGID_16_)" stroke-width="1.3512" stroke-linecap="round" d="
						M-171.497,185.997l25.084,24.411c1.851,1.899,2.97,4.392,3.156,7.042l2.182,28.893c0.344,3.315-0.816,6.612-3.152,8.983
						l-19.914,19.918c-2.373,2.342-5.668,3.492-8.982,3.155l-28.896-2.189c-2.648-0.183-5.144-1.298-7.043-3.152l-25.083-24.413"/>
					
						<linearGradient id="SVGID_17_" gradientUnits="userSpaceOnUse" x1="-65.0756" y1="127.5778" x2="-65.0756" y2="26.6494" gradientTransform="matrix(-0.2739 0.4743 -0.4743 -0.2739 -145.0949 315.6562)">
						<stop  offset="0" style="stop-color:#FFFFFF"/>
						<stop  offset="1" style="stop-color:#FFFFFF;stop-opacity:0"/>
					</linearGradient>
					
						<path inkscape:radius="-0.58711064" inkscape:original="M 14.71875 6.8125 C 14.129935 6.8140249 13.543329 6.8880281 12.96875 7.03125 L 16.5 10.5625 C 16.589624 10.650873 16.646088 10.749545 16.65625 10.875 L 16.875 13.5 C 16.888638 13.656013 16.830347 13.827626 16.71875 13.9375 L 15.125 15.5625 C 17.279079 16.073694 19.038866 17.020591 21.34375 15.78125 C 22.074648 13.392376 21.483569 10.671069 19.59375 8.78125 C 18.245921 7.4334204 16.485196 6.8079254 14.71875 6.8125 z M 8 12 C 7.6061401 13.580092 7.7314214 15.26324 8.4375 16.75 C 9.564272 16.068398 10.560695 15.675078 11.46875 15.46875 L 8 12 z " sodipodi:type="inkscape:offset" opacity="0.5905" fill="url(#SVGID_17_)" enable-background="new    " d="
						M-171.633,183.447c-1.718,0.003-3.359,0.494-5.077,0.632l27.285,27.283c1.598,1.573,3.262,3.86,3.487,6.66l2.224,26.641
						c0.296,3.428-0.889,6.641-3.495,9.206l-8.882,9.192c6.974,1.976,14.128,4.172,20.306,5.081
						c8.551,1.247,16.831,0.406,26.323-4.126c5.519-21.477,0.052-45.628-16.806-62.493
						C-138.769,189.025-155.12,183.399-171.633,183.447z M-235.072,243.082c-0.695,9.101,0.421,18.036,3.485,26.644
						c5.529-2.918,10.815-5.551,15.857-7.294L-235.072,243.082z"/>
				</g>
				<g transform="translate(-36,-48)">
					
						<linearGradient id="SVGID_18_" gradientUnits="userSpaceOnUse" x1="329.2016" y1="367.9329" x2="453.4637" y2="496.6809" gradientTransform="matrix(1 0 0 1 -35.1562 -224.291)">
						<stop  offset="0" style="stop-color:#D3D7CF"/>
						<stop  offset="1" style="stop-color:#888A85"/>
					</linearGradient>
					<path fill="url(#SVGID_18_)" stroke="#2E3436" stroke-linecap="round" d="M338.487,101.948
						c-4.957,0.188-9.869,0.951-14.591,1.903h-0.318c-3.547,0.724-7.082,1.73-10.467,2.854c-4.896,1.626-9.467,3.634-13.958,6.028
						l6.662,31.723c-4.833,3.58-9.384,7.767-13.006,12.688l-31.406-6.344c-2.602,4.918-4.98,9.829-6.662,15.227
						c-2.333,7.493-3.812,15.606-4.123,23.791l31.088,10.466c0.708,6.013,2.051,11.991,4.439,17.441l-21.569,24.11
						c2.82,4.481,5.987,8.784,9.517,12.69l6.343,6.025c3.939,3.61,8.158,6.962,12.689,9.834l24.109-21.57
						c2.899,1.299,5.72,2.328,8.882,3.173c2.992,0.804,6.21,1.566,9.199,1.902l10.151,30.771c4.958-0.188,9.868-0.954,14.593-1.903
						h0.317c3.549-0.725,7.083-1.725,10.467-2.854c4.896-1.628,9.465-3.63,13.956-6.029l-6.661-31.72
						c4.832-3.576,9.378-7.765,13.01-12.69l31.4,6.343c2.598-4.916,4.976-9.822,6.66-15.225c2.344-7.495,3.811-15.604,4.127-23.785
						l-31.089-10.47c-0.708-6.013-2.048-11.983-4.437-17.446l21.57-24.111c-2.819-4.482-5.989-8.777-9.517-12.688l-6.346-6.027
						c-3.95-3.606-8.157-6.956-12.686-9.833l-24.113,21.569c-2.896-1.291-5.72-2.323-8.882-3.171
						c-2.994-0.803-6.209-1.566-9.199-1.902L338.487,101.948z M339.756,173.006c1.149-0.13,2.312-0.069,3.49,0
						c1.348,0.078,2.769,0.272,4.122,0.632c10.826,2.901,17.176,14.238,14.277,25.059c-2.9,10.822-14.236,17.174-25.06,14.272
						c-10.827-2.895-17.175-14.232-14.277-25.057C324.53,179.627,331.691,173.9,339.756,173.006z"/>
					<linearGradient id="SVGID_19_" gradientUnits="userSpaceOnUse" x1="160.8749" y1="-79.4938" x2="176.9374" y2="-66.4938">
						<stop  offset="0" style="stop-color:#FFFFFF"/>
						<stop  offset="1" style="stop-color:#FFFFFF;stop-opacity:0"/>
					</linearGradient>
					
						<path inkscape:radius="-0.96878749" inkscape:original="M 19.09375 25.3125 L 15.25 26.34375 L 16.28125 31.28125 L 11.3125 30.25 L 10.28125 34.09375 L 15.09375 35.6875 L 11.75 39.4375 L 14.53125 42.25 L 18.3125 38.875 L 19.90625 43.6875 L 23.75 42.65625 L 22.71875 37.71875 L 27.6875 38.75 L 28.71875 34.90625 L 23.90625 33.3125 L 27.25 29.5625 L 24.46875 26.75 L 20.6875 30.125 L 19.09375 25.3125 z " sodipodi:type="inkscape:offset" fill="none" stroke="url(#SVGID_19_)" stroke-linecap="round" d="
						M331.507,111.78l-21.252,6.028l8.564,40.921c0.568,3.167-0.447,6.42-2.726,8.695c-2.274,2.274-5.526,3.294-8.693,2.728
						l-41.24-8.567l-6.027,21.256l40.286,13.321c3.118,1.071,5.488,3.634,6.316,6.829c0.832,3.187,0.01,6.581-2.191,9.026
						l-27.597,31.089l14.909,15.224l31.405-27.913c2.451-2.203,5.847-3.014,9.034-2.188c3.192,0.832,5.756,3.199,6.826,6.309
						l13.324,40.29l21.251-6.028l-8.565-40.921c-0.569-3.173,0.446-6.414,2.728-8.684c2.274-2.278,5.526-3.303,8.693-2.738
						l41.241,8.562l6.024-21.245l-40.289-13.324c-3.113-1.075-5.485-3.63-6.311-6.824c-0.834-3.187-0.011-6.583,2.191-9.036
						l27.599-31.087l-14.909-15.227l-31.404,27.916c-2.455,2.195-5.85,3.018-9.036,2.191c-3.191-0.828-5.756-3.198-6.825-6.316
						L331.507,111.78z"/>
					
						<radialGradient id="SVGID_20_" cx="400.1308" cy="419.3753" r="88.187" gradientTransform="matrix(1 0 0 0.9964 -58.1562 -224.5626)" gradientUnits="userSpaceOnUse">
						<stop  offset="0" style="stop-color:#000000"/>
						<stop  offset="1" style="stop-color:#000000;stop-opacity:0"/>
					</radialGradient>
					<path opacity="0.9373" fill="url(#SVGID_20_)" enable-background="new    " d="M334.68,105.436l-30.453,8.884l9.516,45.362
						c0.277,1.536-0.165,3.017-1.269,4.124c-1.104,1.105-2.579,1.546-4.124,1.269l-45.68-9.517l-8.883,30.453l45.046,14.909
						c1.511,0.519,2.453,1.936,2.854,3.49c0.4,1.546,0.114,2.928-0.951,4.117l-30.771,34.896l21.571,21.883l35.212-31.085
						c1.195-1.068,2.572-1.349,4.125-0.954c1.55,0.406,2.968,1.354,3.488,2.855l14.909,45.049l30.454-8.885l-9.516-45.36
						c-0.277-1.538,0.166-3.016,1.268-4.125c1.106-1.103,2.583-1.546,4.126-1.27l45.679,9.517l8.883-30.448l-45.043-14.911
						c-1.515-0.52-2.456-1.942-2.859-3.49c-0.399-1.552-0.108-2.934,0.952-4.123l30.771-34.895l-21.57-21.888l-35.211,31.087
						c-1.193,1.065-2.571,1.353-4.122,0.951c-1.553-0.401-2.968-1.342-3.49-2.855L334.68,105.436z M341.977,162.853
						c16.807,0,30.453,13.641,30.453,30.45s-13.646,30.452-30.453,30.452c-16.811,0-30.453-13.639-30.453-30.452
						C311.524,176.492,325.166,162.853,341.977,162.853z"/>
					
						<linearGradient id="SVGID_21_" gradientUnits="userSpaceOnUse" x1="347.1596" y1="380.8196" x2="400.5446" y2="446.3172" gradientTransform="matrix(1 0 0 1 -35.1562 -224.291)">
						<stop  offset="0" style="stop-color:#888A85"/>
						<stop  offset="1" style="stop-color:#D3D7CF"/>
					</linearGradient>
					<path fill="url(#SVGID_21_)" d="M341.977,137.476c-30.819,0-55.832,25.012-55.832,55.827c0,30.816,25.013,55.828,55.832,55.828
						c30.819,0,55.832-25.001,55.832-55.828C397.81,162.488,372.796,137.476,341.977,137.476z M341.977,167.93
						c14.007,0,25.378,11.37,25.378,25.375c0,14.015-11.37,25.377-25.378,25.377c-14.008,0-25.379-11.362-25.379-25.377
						C316.599,179.299,327.969,167.93,341.977,167.93z"/>
					<linearGradient id="SVGID_22_" gradientUnits="userSpaceOnUse" x1="167.3066" y1="-73.7311" x2="163.9493" y2="-79.6558">
						<stop  offset="0" style="stop-color:#EEEEEC"/>
						<stop  offset="1" style="stop-color:#EEEEEC;stop-opacity:0"/>
					</linearGradient>
					
						<path sodipodi:cx="19.555922" sodipodi:cy="34.587067" sodipodi:ry="3.1598835" sodipodi:rx="3.1598835" sodipodi:type="arc" fill="none" stroke="url(#SVGID_22_)" stroke-width="1.0533" stroke-linecap="round" d="
						M372.43,193.304c0,16.821-13.634,30.452-30.453,30.452c-16.819,0-30.453-13.631-30.453-30.452
						c0-16.815,13.634-30.449,30.453-30.449C358.793,162.853,372.43,176.489,372.43,193.304z"/>
					<linearGradient id="SVGID_23_" gradientUnits="userSpaceOnUse" x1="164.1601" y1="-73.8757" x2="169.5319" y2="-79.4449">
						<stop  offset="0" style="stop-color:#EEEEEC"/>
						<stop  offset="1" style="stop-color:#EEEEEC;stop-opacity:0"/>
					</linearGradient>
					
						<path sodipodi:cx="19.555922" sodipodi:cy="34.587067" sodipodi:ry="3.1598835" sodipodi:rx="3.1598835" sodipodi:type="arc" fill="none" stroke="url(#SVGID_23_)" stroke-width="0.632" stroke-linecap="round" d="
						M392.73,193.304c0-28.026-22.724-50.752-50.753-50.752s-50.757,22.726-50.757,50.752c0,28.03,22.726,50.753,50.757,50.753
						C370.007,244.057,392.73,221.334,392.73,193.304z"/>
				</g>
				
					<linearGradient id="SVGID_24_" gradientUnits="userSpaceOnUse" x1="208.5805" y1="-576.2927" x2="222.3896" y2="-576.2927" gradientTransform="matrix(1 0 0 -1 0 -433.1127)">
					<stop  offset="0" style="stop-color:#8F5902"/>
					<stop  offset="1" style="stop-color:#8F5902;stop-opacity:0"/>
				</linearGradient>
				<path opacity="0.6" fill="url(#SVGID_24_)" enable-background="new    " d="M219.057,112.727c-4.203,0-5.551,0.714-6.661,1.586
					c-1.109,0.871-2.549,2.71-3.808,6.342l-16.494,52.978h49.486v-60.906H219.057z"/>
				<g transform="translate(-51.349122,5.5625)">
					
						<linearGradient id="SVGID_25_" gradientUnits="userSpaceOnUse" x1="-88.8301" y1="461.9163" x2="-74.6966" y2="476.144" gradientTransform="matrix(-0.7196 -0.1928 -0.1915 0.7149 265.7852 -251.6433)">
						<stop  offset="0" style="stop-color:#EEEEEC"/>
						<stop  offset="1" style="stop-color:#BABDB6"/>
					</linearGradient>
					
						<path sodipodi:nodetypes="ccccccccccccc" fill="url(#SVGID_25_)" stroke="#888A85" stroke-linecap="round" stroke-linejoin="round" d="
						M192.288-19.633l16.074,33.01l0.114,0.205l-0.282,14.527c0.024,0.078,0.063,0.148,0.121,0.208l95.466,165.349
						c4.789,9.557-11.925,20.026-18.706,10.809L189.522,39.435c-0.026-0.075-0.064-0.144-0.119-0.203l-11.32-4.58l-0.114-0.202
						L155.892,1.379C156.678,0.926,191.501-19.177,192.288-19.633z"/>
					
						<linearGradient id="SVGID_26_" gradientUnits="userSpaceOnUse" x1="421.4106" y1="353.5706" x2="421.4106" y2="408.9805" gradientTransform="matrix(-0.6409 0.37 0.37 0.6409 317.7577 -384.0192)">
						<stop  offset="0" style="stop-color:#EEEEEC"/>
						<stop  offset="1" style="stop-color:#EEEEEC;stop-opacity:0"/>
					</linearGradient>
					<path sodipodi:nodetypes="ccccccccc" fill="url(#SVGID_26_)" d="M190.881-15.024l14.166,29.229l-0.115,13.893
						c0.011,0.654,0.193,1.297,0.53,1.86l-13.094,7.833c-0.392-0.748-1.021-1.338-1.784-1.685l-10.473-4.525L160.586,2.462
						C165.69-0.48,185.774-12.078,190.881-15.024z"/>
				</g>
				<g transform="matrix(-0.7400836,0,0,0.7400836,52.610589,6.835614)">
					<g transform="matrix(0.7071068,-0.7071068,0.7071068,0.7071068,-57.460697,74.506628)">
						
							<linearGradient id="SVGID_27_" gradientUnits="userSpaceOnUse" x1="490.2957" y1="-754.0316" x2="318.9939" y2="-685.5109" gradientTransform="matrix(0 -0.5477 0.5477 0 55.5373 -52.2414)">
							<stop  offset="0" style="stop-color:#D3D7CF"/>
							<stop  offset="1" style="stop-color:#EEEEEC"/>
						</linearGradient>
						
							<linearGradient id="SVGID_28_" gradientUnits="userSpaceOnUse" x1="640.0381" y1="602.5897" x2="622.5873" y2="620.1671" gradientTransform="matrix(1 0 0 1 6.103516e-05 0)">
							<stop  offset="0" style="stop-color:#888A85"/>
							<stop  offset="1" style="stop-color:#555753"/>
						</linearGradient>
						
							<path sodipodi:nodetypes="csccsccscccccc" fill="url(#SVGID_27_)" stroke="url(#SVGID_28_)" stroke-width="1.3512" stroke-linecap="round" stroke-linejoin="round" d="
							M-458.707-459.578c-26.824,11.789-45.672,38.63-45.663,69.799c-0.009,29.146,16.521,54.456,40.592,67.244l0.003,175.619
							c-0.002,19.684,15.841,35.527,35.523,35.523c19.684,0,35.525-15.841,35.522-35.522l0.003-175.619
							c24.083-12.789,40.61-38.106,40.614-67.245c-0.007-31.168-18.852-58.016-45.684-69.792l0.004,60.273l-17.458,20.295
							l-26.005,0.003l-17.451-20.304L-458.707-459.578z"/>
						
							<linearGradient id="SVGID_29_" gradientUnits="userSpaceOnUse" x1="666.7397" y1="594.5659" x2="637.5855" y2="606.2617" gradientTransform="matrix(1 0 0 1 6.103516e-05 0)">
							<stop  offset="0" style="stop-color:#FFFFFF"/>
							<stop  offset="1" style="stop-color:#FFFFFF;stop-opacity:0"/>
						</linearGradient>
						
							<path sodipodi:nodetypes="cscccscccscccccccccc" fill="none" stroke="url(#SVGID_29_)" stroke-width="1.3512" stroke-linecap="round" d="
							M-473.293-430.936c-10.095,10.929-16.502,25.142-16.493,41.232c0.004,23.751,13.113,44.173,32.669,54.558
							c4.841,2.418,7.914,7.281,7.93,12.696l-0.01,175.459c0.014,12.06,8.89,20.936,20.935,20.935
							c12.089,0.002,20.954-8.864,20.941-20.941l0.004-175.452c0.015-5.42,3.088-10.265,7.936-12.689
							c19.546-10.399,32.671-30.821,32.676-54.56c-0.008-16.094-6.4-30.306-16.499-41.24l-0.005,31.714
							c-0.033,3.413-1.247,6.633-3.483,9.205l-17.456,20.3c-2.692,3.321-6.811,5.37-11.096,5.395l-26.013,0.004
							c-4.279-0.036-8.398-2.073-11.099-5.396l-17.454-20.307c-2.239-2.571-3.454-5.793-3.488-9.201L-473.293-430.936z"/>
						
							<linearGradient id="SVGID_30_" gradientUnits="userSpaceOnUse" x1="302.0196" y1="-1057.9458" x2="231.6729" y2="-1014.2816" gradientTransform="matrix(-2.093613e-04 -0.6174 0.5468 2.093613e-04 158.0686 -21.7325)">
							<stop  offset="0" style="stop-color:#2E3436"/>
							<stop  offset="1" style="stop-color:#729FCF"/>
						</linearGradient>
						<path sodipodi:nodetypes="ccccccccc" opacity="0.2311" fill="url(#SVGID_30_)" enable-background="new    " d="
							M-431.041-292.587c-6.482,0.005-11.409,5.086-11.402,11.742l0.061,149.003c0.011,6.634,4.943,11.725,11.428,11.732
							l5.385,0.001c6.494-0.002,11.74-5.212,11.735-11.735l-0.068-148.994c-0.011-6.526-5.252-11.741-11.734-11.734
							L-431.041-292.587z"/>
					</g>
					<linearGradient id="SVGID_31_" gradientUnits="userSpaceOnUse" x1="163.758" y1="-438.8422" x2="166.383" y2="-447.2172">
						<stop  offset="0" style="stop-color:#FFFFFF"/>
						<stop  offset="1" style="stop-color:#FFFFFF;stop-opacity:0"/>
					</linearGradient>
					<path sodipodi:nodetypes="cccccccccc" fill="none" stroke="url(#SVGID_31_)" stroke-width="1.3512" stroke-linecap="round" d="
						M-635.365,40.251l25.074,24.41c1.849,1.895,2.973,4.392,3.16,7.04l2.169,28.9c0.35,3.313-0.802,6.607-3.146,8.979
						l-19.918,19.91c-2.371,2.343-5.666,3.505-8.974,3.162l-28.906-2.19c-2.65-0.179-5.142-1.297-7.046-3.153l-25.072-24.405"/>
					
						<linearGradient id="SVGID_32_" gradientUnits="userSpaceOnUse" x1="-981.3798" y1="700.3965" x2="-981.3798" y2="599.4673" gradientTransform="matrix(0.5477 0 0 0.5477 -97.6725 -251.0761)">
						<stop  offset="0" style="stop-color:#FFFFFF"/>
						<stop  offset="1" style="stop-color:#FFFFFF;stop-opacity:0"/>
					</linearGradient>
					
						<path inkscape:radius="-0.58711064" inkscape:original="M 14.71875 6.8125 C 14.129935 6.8140249 13.543329 6.8880281 12.96875 7.03125 L 16.5 10.5625 C 16.589624 10.650873 16.646088 10.749545 16.65625 10.875 L 16.875 13.5 C 16.888638 13.656013 16.830347 13.827626 16.71875 13.9375 L 15.125 15.5625 C 17.279079 16.073694 19.038866 17.020591 21.34375 15.78125 C 22.074648 13.392376 21.483569 10.671069 19.59375 8.78125 C 18.245921 7.4334204 16.485196 6.8079254 14.71875 6.8125 z M 8 12 C 7.6061401 13.580092 7.7314214 15.26324 8.4375 16.75 C 9.564272 16.068398 10.560695 15.675078 11.46875 15.46875 L 8 12 z " sodipodi:type="inkscape:offset" opacity="0.5905" fill="url(#SVGID_32_)" enable-background="new    " d="
						M-635.498,37.699c-1.743,0.007-3.381,0.496-5.097,0.637l27.288,27.276c1.601,1.574,3.258,3.872,3.497,6.664l2.222,26.641
						c0.298,3.431-0.881,6.638-3.49,9.202l-8.887,9.201c6.967,1.97,14.12,4.175,20.309,5.076c8.545,1.248,16.821,0.409,26.317-4.122
						c5.52-21.487,0.042-45.637-16.812-62.494C-602.641,43.276-618.997,37.658-635.498,37.699z M-698.95,97.336
						c-0.699,9.109,0.414,18.039,3.495,26.643c5.517-2.92,10.798-5.551,15.861-7.293L-698.95,97.336z"/>
				</g>
				
					<linearGradient id="SVGID_33_" gradientUnits="userSpaceOnUse" x1="352.7108" y1="382.5502" x2="400.6444" y2="599.0625" gradientTransform="matrix(1 0 0 1 -40 -260)">
					<stop  offset="0" style="stop-color:#EEEEEC"/>
					<stop  offset="1" style="stop-color:#E9B96E"/>
				</linearGradient>
				<path sodipodi:nodetypes="ccccc" fill="url(#SVGID_33_)" d="M179.406,178.741l-8.564,76.103H505.19l-8.883-76.103H179.406z"/>
				<linearGradient id="SVGID_34_" gradientUnits="userSpaceOnUse" x1="122.7499" y1="-76.8062" x2="124.9999" y2="-62.4312">
					<stop  offset="0" style="stop-color:#FFFFFF"/>
					<stop  offset="1" style="stop-color:#FFFFFF;stop-opacity:0"/>
				</linearGradient>
				<path sodipodi:nodetypes="ccccccccccc" opacity="0.6935" fill="none" stroke="url(#SVGID_34_)" enable-background="new    " d="
					M185.116,179.025v0.636l-8.247,70.42c4.862,0.775,8.471,4.92,8.564,9.834v66.935c0,8.049,6.309,14.275,14.593,14.275h275.66
					c8.293,0,14.593-6.227,14.593-14.275v-66.935c-0.037-5.145,3.778-9.505,8.886-10.153l-8.886-72.007"/>
				<path opacity="0.6935" fill="#FFFFFF" enable-background="new    " d="M175.599,244.689h324.834
					c2.804,0,5.074,2.271,5.074,5.076l0,0c0,2.809-2.271,5.08-5.074,5.08H175.599c-2.805,0-5.074-2.271-5.074-5.08l0,0
					C170.524,246.959,172.793,244.689,175.599,244.689z"/>
				
					<linearGradient id="SVGID_35_" gradientUnits="userSpaceOnUse" x1="337.8568" y1="524.4789" x2="337.8568" y2="545.786" gradientTransform="matrix(1 0 0 1 0 -260)">
					<stop  offset="0" style="stop-color:#000000"/>
					<stop  offset="1" style="stop-color:#000000;stop-opacity:0"/>
				</linearGradient>
				<path sodipodi:nodetypes="ccccccc" opacity="0.35" fill="url(#SVGID_35_)" enable-background="new    " d="M180.358,254.843
					v72.007c0,10.824,8.7,19.351,19.668,19.351h275.661c10.967,0,19.669-8.526,19.669-19.351v-72.007H180.358z"/>
				<rect x="170.524" y="254.843" fill="#A0670C" width="335.618" height="10.148"/>
				<path fill="#FCF3E6" d="M185.751,173.633h304.527c2.81,0,5.077,2.478,5.077,5.521l0,0c0,3.053-2.268,5.521-5.077,5.521H185.751
					c-2.806,0-5.075-2.469-5.075-5.521l0,0C180.676,176.111,182.945,173.633,185.751,173.633z"/>
				
					<linearGradient id="SVGID_36_" gradientUnits="userSpaceOnUse" x1="337.6977" y1="434.6332" x2="337.6977" y2="414.91" gradientTransform="matrix(1 0 0 1 0 -261)">
					<stop  offset="0" style="stop-color:#000000"/>
					<stop  offset="1" style="stop-color:#000000;stop-opacity:0"/>
				</linearGradient>
				<path opacity="0.4" fill="url(#SVGID_36_)" enable-background="new    " d="M219.057,112.727c-4.203,0-5.551,0.714-6.661,1.586
					c-1.109,0.871-2.549,2.71-3.808,6.342l-16.494,52.978h291.207l-16.813-51.072c-2.118-5.265-3.627-6.964-5.074-7.929
					c-1.447-0.968-3.647-1.904-8.562-1.904H219.057V112.727z"/>
			</g>
		</g>
	</g>
</g>
</svg>
