<svg xmlns="http://www.w3.org/2000/svg" height="240" width="240">
<path stroke="#396" stroke-width="14" d="m120 45c41 0 75 33.7 75 75 0 41-34 75-75 75-41.3 0-75-34-75-75 0-41.3 33.7-75 75-75zm-33.9-36c-7.2 2.2-14.2 5.1-20.7 8.6l6.3 30.3-23.7 23.7-30.4-6.3c-3.5 6.6-6.4 13.6-8.61 20.9l26 16.8v34l-26 17c2.2 7 5.1 14 8.6 21l30.4-7 23.6 24-6.3 30c6.6 4 13.5 7 20.7 9l17-26h34l17 26c7-2 14-5 21-9l-7-30 24-24 30 7c4-7 7-14 9-21-9-6-15-10-26-17v-34l26-16.8c-2-7.3-5-14.3-9-20.9l-30 6.3-24-23.7 7-30.4c-7-3.5-14-6.3-21-8.56l-17 26.1h-34z" fill="#396"/>
<g stroke="#fff" stroke-width="4" stroke-linecap="round" fill="#a00">
<path fill="#069" d="m124 104-61 66c-5 5 2 13 8 7l62-63c8-8-2-18-9-10zm-71.5 79.5c3 0 5.5 2.5 5.5 5.5s-2.5 5.5-5.5 5.5-5.5-2.5-5.5-5.5 2.5-5.5 5.5-5.5zm72.5-95.5-82.76 89.8c-14.09 15.3 6.41 36.1 20.96 21.2l86.25-88.56c37.33 11.35 47.68-23.93 44.59-44.28l-3.734-2.295-13.68 20.8-23.39 0.496-9.1-21.04 13.38-21.12-3.755-2.351c-24.8 6.13-38.4 28.46-28.7 47.39z"/>
<path d="m135 126-12 12c-5 5 0 15 7 19 30 26 36 42 39 47 8 14 23 10 29 3l9-9c7-8 9-24-3-29-5-2-32-17-48-38-5-7-16-10-21-5zm-10 9-59-59h-13l-22-31 16-16 28 24v14l59 60"/>
<path d="m149 142s34 33 49 37m-57-29s34 32 40 48"/>
<path d="m143 126c1.886 0 4 2.114 4 4s-2.114 4-4 4-4-2.114-4-4 2.114-4 4-4z" fill="#fff"/>
</g>
</svg>